<svg version="1.1" xmlns="http://www.w3.org/2000/svg" width="240" height="100" viewBox="-2649.4515558946014 -2714.349907795682 6225.381177979046 5030.860357854697"><desc>Created with Snap</desc><defs></defs><g><g transform="matrix(14.2864,0,0,14.2864,-2445.8397,-2906.795)">
<g id="gSl5dqnpytl5">
	<path d="M196.02133,47.02528C162.0565,63.37874,34.04472,181.23653,17.95026,220.8622
		C-23.53873,323.01114,64.3831,338.37173,131.90678,342.95166c83.79094,5.68329,233.84074-6.40137,262.61847-108.008
		C427.85785,117.2548,302.42114-4.2047,196.02133,47.02528z" fill="#6daedb" style=""></path>
</g>


<desc>Created with Snap</desc><defs></defs></g><g><g transform="matrix(1.024,0,0,-1.024,0,0)"><path d="M206 713L206 750L438 750L438 713Q406 713 392 703Q378 693 378 670L378 224Q378 109 327 49Q277 -10 180 -10Q133 -10 94 9Q56 29 34 62Q12 95 12 136Q12 173 35 198Q58 224 92 225Q124 226 147 202Q170 179 170 146Q170 120 158 105Q147 91 131 84Q116 77 104 75Q93 73 93 73Q93 73 99 62Q106 52 122 41Q138 30 168 30Q214 30 240 69Q266 108 266 176L266 670Q266 693 252 703Q238 713 206 713ZM688 555Q780 555 830 499Q880 443 880 341L880 199Q880 -15 688 -15Q594 -15 544 40Q494 95 494 199L494 341Q494 447 543 501Q593 555 688 555ZM688 24Q724 24 747 50Q770 77 770 119L770 420Q770 462 747 489Q724 516 688 516Q653 516 629 488Q606 461 606 420L606 119Q606 76 628 50Q651 24 688 24ZM944 0L944 37Q976 37 990 47Q1004 57 1004 80L1004 460Q1004 483 990 493Q976 503 944 503L944 540L1165 540Q1248 540 1295 504Q1343 469 1343 406Q1343 359 1329 332Q1315 306 1276 283Q1326 265 1349 232Q1372 199 1372 147Q1372 72 1327 36Q1283 0 1190 0L944 0ZM1166 501L1112 501L1112 39L1190 39Q1223 39 1243 60Q1263 81 1263 116L1263 177Q1263 214 1243 235Q1224 257 1190 257L1152 257L1152 294L1166 294Q1204 294 1221 315Q1239 337 1239 383L1239 424Q1239 460 1219 480Q1200 501 1166 501Z" fill="#173753" style=""></path></g></g><g transform="matrix(1,0,0,1,-332.288,1090.56)"><g transform="matrix(1.024,0,0,-1.024,0,0)"><path d="M86 80L86 670Q86 693 72 703Q58 713 26 713L26 750L258 750L258 713Q226 713 212 703Q198 693 198 670L198 415L361 415L361 670Q361 693 347 703Q333 713 301 713L301 750L531 750L531 713Q499 713 485 703Q471 693 471 670L471 80Q471 57 485 47Q499 37 531 37L531 0L301 0L301 37Q333 37 347 47Q361 57 361 80L361 372L198 372L198 80Q198 56 211 46Q224 37 258 37L258 0L26 0L26 37Q60 37 73 46Q86 56 86 80ZM968 460L968 204Q968 -10 801 -10Q715 -10 665 47Q616 104 616 204L616 460Q616 483 602 493Q588 503 556 503L556 540L786 540L786 503Q754 503 740 493Q726 483 726 460L726 136Q726 90 752 61Q779 32 822 32Q868 32 896 76Q925 120 925 189L925 460Q925 484 912 493Q899 503 865 503L865 540L1028 540L1028 503Q994 503 981 493Q968 484 968 460ZM1120 80L1120 460Q1120 483 1106 493Q1092 503 1060 503L1060 540L1228 540L1443 194L1443 460Q1443 484 1430 493Q1417 503 1383 503L1383 540L1547 540L1547 503Q1513 503 1500 493Q1487 484 1487 460L1487 0L1442 0L1164 450L1164 80Q1164 56 1177 46Q1190 37 1224 37L1224 0L1060 0L1060 37Q1094 37 1107 46Q1120 56 1120 80ZM1671 0L1671 37Q1703 37 1717 47Q1731 57 1731 80L1731 501L1714 501Q1682 501 1663 491Q1644 481 1630 452Q1617 423 1601 365L1567 374L1601 566L1632 566Q1635 540 1678 540L1896 540Q1939 540 1942 566L1973 566L2007 374L1973 365Q1957 423 1943 452Q1930 481 1911 491Q1892 501 1860 501L1841 501L1841 80Q1841 57 1855 47Q1869 37 1901 37L1901 0L1671 0Z" fill="#173753" style=""></path></g></g></g></svg>