<svg version="1.1" xmlns="http://www.w3.org/2000/svg" width="174" height="60" viewBox="-280.5759994506836 -1075.2000610351563 4880.384375 1392.6400512695313"><desc>Created with Snap</desc><defs></defs><g><g><g transform="matrix(1.024,0,0,-1.024,0,0)"><path d="M176 681L176 700L501 700L501 681L446 681L446 249Q446 114 385 52Q324 -9 202 -9Q121 -9 73 22Q26 53 26 109Q26 152 50 176Q74 201 115 201Q157 201 177 180Q198 159 198 129Q198 100 187 70L148 70Q139 55 139 41Q139 28 152 18Q166 9 188 9Q228 9 239 40Q251 72 251 177L251 681L176 681ZM850 197L850 282Q850 379 839 423Q829 468 791 468Q769 468 755 455Q742 443 736 414Q727 369 727 277L727 199Q727 90 733 68Q740 46 747 32Q758 8 790 8Q829 8 841 53Q850 85 850 197ZM788 -10Q663 -10 599 54Q535 118 535 237Q535 357 603 421Q672 486 796 486Q920 486 981 426Q1042 367 1042 245Q1042 -10 788 -10ZM1435 269Q1435 372 1425 407Q1415 443 1386 443Q1357 443 1334 407Q1311 371 1311 308L1311 122Q1311 79 1328 49Q1346 19 1378 19Q1411 19 1423 63Q1435 107 1435 217L1435 269ZM1070 750L1311 750L1311 400Q1349 486 1441 486Q1628 486 1628 237Q1628 110 1576 50Q1525 -10 1422 -10Q1370 -10 1342 6Q1315 22 1305 59L1298 0L1070 0L1070 18L1125 18L1125 732L1070 732L1070 750ZM1849 681L1849 700L2161 700L2161 681L2103 681L2103 371L2302 371L2302 681L2243 681L2243 700L2556 700L2556 681L2497 681L2497 19L2556 19L2556 0L2243 0L2243 19L2302 19L2302 345L2103 345L2103 19L2161 19L2161 0L1849 0L1849 19L1908 19L1908 681L1849 681ZM3172 18L3172 0L2944 0L2933 73Q2917 33 2885 11Q2854 -10 2792 -10Q2637 -10 2637 157L2637 458L2581 458L2581 476L2823 476L2823 133Q2823 73 2831 54Q2840 35 2865 35Q2891 35 2911 66Q2931 97 2931 152L2931 458L2885 458L2885 476L3117 476L3117 18L3172 18ZM3194 458L3194 476L3435 476L3435 384Q3451 430 3484 458Q3517 486 3584 486Q3739 486 3739 319L3739 18L3795 18L3795 0L3512 0L3512 18L3553 18L3553 343Q3553 403 3545 420Q3537 438 3516 438Q3484 438 3459 396Q3435 354 3435 294L3435 18L3478 18L3478 0L3194 0L3194 18L3249 18L3249 458L3194 458ZM3858 143L3858 458L3803 458L3803 476L3858 476L3858 605L4044 651L4044 476L4174 476L4174 458L4044 458L4044 121Q4044 74 4053 52Q4063 30 4093 30Q4123 30 4145 60Q4168 90 4175 142L4192 140Q4184 71 4148 30Q4112 -10 4029 -10Q3946 -10 3902 23Q3858 56 3858 143Z" fill="#5ca4a9" style=""></path></g></g></g></svg>