<svg version="1.1" xmlns="http://www.w3.org/2000/svg" width="180" height="90" viewBox="-1280.1974793412023 -1660.9280731201172 5929.157784745865 2715.6481384277345"><desc>Created with Snap</desc><defs></defs><g><g transform="matrix(23.3472,0,0,23.3472,-1793.6246,-1470.4641)"><g><path d="M48.975,94.575C49.257,94.86,49.627,95,50,95c0.37,0,0.744-0.14,1.025-0.425l13.399-13.4   c0.318-0.318,0.47-0.761,0.415-1.204l-6.644-53.163l6.5-13.008c0.282-0.56,0.173-1.234-0.271-1.674l-6.697-6.701   C57.452,5.154,57.083,5,56.698,5H43.299c-0.381,0-0.755,0.153-1.025,0.425l-6.697,6.701c-0.444,0.439-0.555,1.114-0.275,1.674   l6.504,13.008l-6.644,53.163c-0.059,0.443,0.096,0.886,0.415,1.204L48.975,94.575z M61.873,79.627L50,91.495l-7.159-7.159   L60.28,66.897L61.873,79.627z M38.37,13.438l5.529-5.534h12.198l5.533,5.534l-5.83,11.66H44.2L38.37,13.438z M55.728,30.496   L42.633,43.591l1.947-15.586h10.837L55.728,30.496z M42.047,48.283l14.139-14.14l1.593,12.729L40.002,64.645L42.047,48.283z    M39.416,69.336L58.232,50.52l1.594,12.729l-19.04,19.036l-2.658-2.658L39.416,69.336z" fill="#5ca4a9" style=""></path></g><desc>Created with Snap</desc><defs></defs></g><g><g transform="matrix(1.024,0,0,-1.024,0,0)"><path d="M27 662L27 700L335 700L335 662Q319 652 299 644Q279 636 259 633L259 121Q259 39 234 -14Q210 -66 176 -97Q143 -127 108 -141Q73 -155 51 -160L32 -134Q47 -122 61 -104Q75 -85 85 -56Q96 -27 102 14Q109 56 109 115L109 633Q87 638 65 644Q44 651 27 662ZM396 250Q396 311 414 359Q433 408 467 442Q502 476 551 494Q600 512 662 512Q732 512 782 492Q833 473 865 438Q898 404 913 355Q928 307 928 250Q928 189 910 140Q892 92 857 58Q823 24 773 6Q724 -12 662 -12Q594 -12 544 7Q494 27 461 61Q428 96 412 144Q396 193 396 250ZM551 250Q551 205 556 167Q562 130 576 104Q590 78 614 63Q638 49 676 49Q698 49 716 59Q734 70 747 93Q760 117 766 155Q773 194 773 250Q773 296 767 333Q762 370 748 396Q735 422 712 436Q689 451 654 451Q628 451 609 440Q590 430 577 406Q564 383 557 344Q551 306 551 250ZM1026 29L1026 669L950 677L950 716Q965 722 989 728Q1014 734 1040 738Q1067 743 1092 746Q1118 750 1136 752L1170 752L1170 406L1172 406Q1192 456 1233 484Q1274 512 1330 512Q1418 512 1467 451Q1516 390 1516 266Q1516 129 1443 60Q1371 -9 1231 -9Q1206 -9 1175 -6Q1144 -2 1115 3Q1086 8 1061 15Q1037 22 1026 29ZM1265 432Q1227 432 1204 404Q1181 377 1170 335L1170 70Q1184 60 1204 54Q1225 48 1251 48Q1308 48 1334 99Q1361 150 1361 259Q1361 338 1339 385Q1318 432 1265 432ZM2140 38L2140 0L1837 0L1837 38Q1854 47 1876 55Q1899 63 1919 67L1919 633Q1895 637 1873 645Q1851 653 1837 662L1837 700L2140 700L2140 662Q2125 652 2106 644Q2088 636 2069 633L2069 391L2334 391L2334 633Q2312 637 2294 645Q2277 653 2263 662L2263 700L2566 700L2566 662Q2549 651 2527 644Q2505 637 2484 633L2484 67Q2507 63 2528 55Q2550 47 2566 38L2566 0L2263 0L2263 38Q2278 47 2296 55Q2314 63 2334 67L2334 326L2069 326L2069 67Q2089 63 2106 56Q2123 49 2140 38ZM2657 198Q2657 261 2660 315Q2663 369 2663 429L2597 437L2597 476Q2613 482 2636 488Q2660 494 2685 498Q2710 503 2733 506Q2757 510 2773 512L2807 512Q2807 437 2804 364Q2801 292 2801 222Q2801 140 2817 104Q2834 68 2879 68Q2910 68 2936 91Q2963 115 2980 167L2980 429L2915 437L2915 476Q2930 482 2952 488Q2975 494 2999 498Q3024 503 3048 506Q3072 510 3090 512L3124 512L3124 71L3190 63L3190 28Q3176 22 3155 16Q3134 10 3111 4Q3088 -1 3065 -5Q3043 -8 3025 -10L2991 -10L2984 109L2980 109Q2975 88 2962 66Q2949 45 2928 27Q2908 10 2880 -1Q2852 -12 2818 -12Q2780 -12 2750 -3Q2721 7 2700 31Q2679 55 2668 95Q2657 136 2657 198ZM3840 39L3840 0L3575 0L3575 39Q3588 46 3600 51Q3613 57 3630 63L3630 298Q3630 361 3612 396Q3594 432 3548 432Q3510 432 3482 407Q3455 383 3441 341L3441 63Q3457 59 3469 53Q3482 48 3496 39L3496 0L3231 0L3231 39Q3256 52 3297 63L3297 429L3231 437L3231 476Q3244 482 3265 487Q3286 493 3310 498Q3335 503 3360 506Q3386 510 3407 512L3441 512L3441 409L3442 409Q3463 451 3505 481Q3547 512 3607 512Q3646 512 3677 502Q3708 493 3729 469Q3751 445 3762 404Q3774 364 3774 302L3774 63Q3814 56 3840 39ZM3860 437L3860 476Q3898 500 3940 510L3940 591Q3946 597 3960 602Q3975 608 3991 612Q4008 617 4024 621Q4040 625 4050 627L4084 627L4084 500L4216 500L4216 437L4084 437L4084 178Q4084 116 4099 92Q4115 68 4151 68Q4169 68 4191 70Q4214 73 4233 80L4240 47Q4231 38 4213 28Q4196 18 4173 9Q4151 0 4124 -6Q4098 -12 4069 -12Q4004 -12 3972 22Q3940 56 3940 132L3940 437L3860 437Z" fill="#5ca4a9" style=""></path></g></g></g></svg>